<?xml version="1.0" encoding="UTF-8" standalone="no"?>
<!-- Created with Inkscape (http://www.inkscape.org/) -->

<svg
   xmlns:dc="http://purl.org/dc/elements/1.1/"
   xmlns:cc="http://creativecommons.org/ns#"
   xmlns:rdf="http://www.w3.org/1999/02/22-rdf-syntax-ns#"
   xmlns:svg="http://www.w3.org/2000/svg"
   xmlns="http://www.w3.org/2000/svg"
   xmlns:xlink="http://www.w3.org/1999/xlink"
   xmlns:sodipodi="http://sodipodi.sourceforge.net/DTD/sodipodi-0.dtd"
   xmlns:inkscape="http://www.inkscape.org/namespaces/inkscape"
   version="1.1"
   width="450"
   height="450"
   id="svg2"
   xml:space="preserve"
   inkscape:version="0.48.0 r9654"
   sodipodi:docname="android-logo.ai.svg"><sodipodi:namedview
     pagecolor="#ffffff"
     bordercolor="#666666"
     borderopacity="1"
     objecttolerance="10"
     gridtolerance="10"
     guidetolerance="10"
     inkscape:pageopacity="0"
     inkscape:pageshadow="2"
     inkscape:window-width="640"
     inkscape:window-height="480"
     id="namedview38"
     showgrid="false"
     inkscape:zoom="0.67111111"
     inkscape:cx="225"
     inkscape:cy="243.62583"
     inkscape:window-x="0"
     inkscape:window-y="24"
     inkscape:window-maximized="0"
     inkscape:current-layer="svg2" /><metadata
     id="metadata8"><rdf:RDF><cc:Work
         rdf:about=""><dc:format>image/svg+xml</dc:format><dc:type
           rdf:resource="http://purl.org/dc/dcmitype/StillImage" /></cc:Work></rdf:RDF></metadata><defs
     id="defs6"><clipPath
       id="clipPath16"><path
         d="m 347.775,12.334 -336.217,0 0,336.666 336.217,0 0,-336.666 z"
         inkscape:connector-curvature="0"
         id="path18" /></clipPath><radialGradient
       cx="0"
       cy="0"
       r="1"
       fx="0"
       fy="0"
       id="radialGradient24"
       gradientUnits="userSpaceOnUse"
       gradientTransform="matrix(330.31351,0,0,-330.31351,58.638184,303.27148)"
       spreadMethod="pad"><stop
         id="stop26"
         style="stop-color:#00aebf;stop-opacity:1"
         offset="0" /><stop
         id="stop28"
         style="stop-color:#00425f;stop-opacity:1"
         offset="1" /></radialGradient><clipPath
       id="clipPath36"><path
         d="M 0,360 360,360 360,0 0,0 0,360 z"
         inkscape:connector-curvature="0"
         id="path38" /></clipPath><radialGradient
       inkscape:collect="always"
       xlink:href="#radialGradient24"
       id="radialGradient3059"
       gradientUnits="userSpaceOnUse"
       gradientTransform="matrix(330.31351,0,0,-330.31351,58.638184,303.27148)"
       spreadMethod="pad"
       cx="0"
       cy="0"
       fx="0"
       fy="0"
       r="1" /><radialGradient
       inkscape:collect="always"
       xlink:href="#radialGradient24"
       id="radialGradient3065"
       gradientUnits="userSpaceOnUse"
       gradientTransform="matrix(330.31351,0,0,-330.31351,58.638184,303.27148)"
       spreadMethod="pad"
       cx="0"
       cy="0"
       fx="0"
       fy="0"
       r="1" /><radialGradient
       inkscape:collect="always"
       xlink:href="#radialGradient24"
       id="radialGradient3097"
       gradientUnits="userSpaceOnUse"
       gradientTransform="matrix(330.31351,0,0,-330.31351,58.638184,303.27148)"
       spreadMethod="pad"
       cx="0"
       cy="0"
       fx="0"
       fy="0"
       r="1" /><radialGradient
       inkscape:collect="always"
       xlink:href="#radialGradient24"
       id="radialGradient3101"
       gradientUnits="userSpaceOnUse"
       gradientTransform="matrix(330.31351,0,0,-330.31351,58.638184,303.27148)"
       spreadMethod="pad"
       cx="0"
       cy="0"
       fx="0"
       fy="0"
       r="1" /><radialGradient
       inkscape:collect="always"
       xlink:href="#radialGradient24"
       id="radialGradient3104"
       gradientUnits="userSpaceOnUse"
       gradientTransform="matrix(412.89189,0,0,412.89189,73.29773,70.91065)"
       spreadMethod="pad"
       cx="0"
       cy="0"
       fx="0"
       fy="0"
       r="1" /></defs><path
     d="m 253.623,319.54225 c -9.22125,0 -20.75375,-6.21625 -20.75375,-19.38375 l 0,-32.66 -16.1175,0 c 0,0 -0.105,30.84625 -0.105,31.5 0,11.3875 -9.05,20.54375 -20.43625,20.54375 -9.40125,0 -20.75625,-7.79375 -20.75625,-19.7 l 0,-32.34375 -11.4825,0 c -7.995,0 -14.74875,-6.85 -14.74875,-14.9575 l 0,-117.78 0,-4.635 4.635,0 141.80125,0 4.635,0 0,4.635 0,118.0125 c 0,7.845 -7.10875,14.725 -15.2125,14.725 l -10.91375,0 c 0,0 0.105,30.84625 0.105,31.5 0,11.3875 -9.26375,20.54375 -20.65,20.54375"
     inkscape:connector-curvature="0"
     id="path42"
     style="fill:#62bb46;fill-opacity:1;fill-rule:nonzero;stroke:none" /><path
     d="m 196.21037,324.17725 c -5.97375,-0.0275 -12.05,-2.365 -16.9175,-6.5 -4.84375,-4.11375 -8.485,-10.35625 -8.47375,-17.835 l 0,-20.6375 0,-7.07125 -6.8475,0 c -10.69125,-0.0763 -19.3225,-8.89125 -19.38375,-19.5925 l 0,-117.78125 0,-9.27 9.27125,0 141.79875,0 9.27,0 0,9.27 0,118.01375 c -0.009,5.3475 -2.3975,10.1675 -5.9775,13.63375 -3.58625,3.47 -8.4875,5.7175 -13.87,5.72625 l -6.26375,0 c 0.0312,8.64 0.0913,26.345 0.0913,26.865 -0.004,13.9675 -11.36625,25.1525 -25.285,25.17875 l 0,-4.635 0,-4.63625 c 8.85375,-0.005 15.99875,-7.10375 16.01375,-15.9075 0,-0.62125 -0.105,-31.4525 -0.105,-31.48375 l -0.0162,-4.6525 15.565,0 c 2.72375,0.009 5.43,-1.18125 7.42125,-3.115 2,-1.935 3.165,-4.47625 3.15625,-6.97375 l 0,-118.01375 -141.79875,0 0,117.78125 c -0.004,2.75 1.15125,5.3475 3.04,7.26375 1.895,1.91625 4.41875,3.06125 7.0725,3.0575 l 16.11875,0 0,4.63625 c -0.001,0.0325 -0.001,20.4375 0,32.34375 0.0112,4.42625 2.04625,8.0325 5.23125,10.79375 3.1575,2.735 7.46,4.2975 10.88875,4.27 8.82625,-0.0138 15.77875,-7.03125 15.80125,-15.9075 0,-0.6875 0.10625,-31.50875 0.10625,-31.515 l 0.015,-4.62125 25.3725,0 0,4.63625 0,32.66 c 0.0475,5.19125 2.09,8.48875 5.16375,10.9975 3.07,2.46625 7.36625,3.77 10.95375,3.75 l 0,4.63625 0,4.635 c -5.635,-0.02 -11.71375,-1.8225 -16.715,-5.7575 -4.99625,-3.89375 -8.7225,-10.2875 -8.6725,-18.26125 -0.002,-6.58625 -0.002,-14.75125 -0.002,-21.26875 l 0,-6.75625 -6.86125,0 c -0.0288,8.6325 -0.09,26.395 -0.09,26.865 0.005,6.93 -2.77125,13.25875 -7.295,17.80625 -4.50875,4.5525 -10.8175,7.3725 -17.75625,7.3725 l -0.02,0 z"
     inkscape:connector-curvature="0"
     id="path46"
     style="fill:#ffffff;fill-opacity:1;fill-rule:nonzero;stroke:none" /><path
     d="m 128.83912,236.001 c -11.415,0 -20.7025,-9.2875 -20.7025,-20.7025 l 0,-64.94625 c 0.11875,-11.3475 9.40125,-20.5425 20.7025,-20.5425 11.3,0 20.58125,9.195 20.695,20.4975 l 0.006,64.94 c 0,11.46625 -9.2875,20.75375 -20.70125,20.75375"
     inkscape:connector-curvature="0"
     id="path50"
     style="fill:#62bb46;fill-opacity:1;fill-rule:nonzero;stroke:none" /><path
     d="m 128.83912,125.174 c -13.83,0 -25.1925,11.25375 -25.32875,25.0875 l 0,0.045 -0.007,0.0462 0,64.895 c 0,-0.21375 0.009,-0.4 0.0225,-0.6125 -0.015,0.22 -0.0225,0.44125 -0.0225,0.665 0,13.97 11.365,25.33625 25.33625,25.33625 13.97,0 25.33625,-11.36625 25.33625,-25.33625 l 0,-0.33375 -0.002,-0.035 0.002,-64.57875 0,-0.0462 -0.009,-0.045 c -0.135,-13.83375 -11.4975,-25.0875 -25.3275,-25.0875 m 0,9.27125 c 8.81875,0 15.97125,7.10875 16.0575,15.9075 l 0.009,0 0,64.895 -0.002,0 c 0,0.0175 0.002,0.0337 0.002,0.0525 0,8.8725 -7.19375,16.06625 -16.06625,16.06625 -8.8725,0 -16.06625,-7.19375 -16.06625,-16.06625 0,-0.0188 0.002,-0.035 0.002,-0.0525 l -0.002,0 0,-64.895 0.008,0 c 0.0862,-8.79875 7.23875,-15.9075 16.05875,-15.9075"
     inkscape:connector-curvature="0"
     id="path54"
     style="fill:#ffffff;fill-opacity:1;fill-rule:nonzero;stroke:none" /><path
     d="m 321.206,236.001 c -11.41625,0 -20.7025,-9.28625 -20.7025,-20.70125 l 0,-64.9475 c 0.12,-11.34875 9.40375,-20.54375 20.7025,-20.54375 11.2975,0 20.5825,9.195 20.69375,20.4975 l 0.009,64.94125 c 0,11.4675 -9.2875,20.75375 -20.7025,20.75375"
     inkscape:connector-curvature="0"
     id="path58"
     style="fill:#62bb46;fill-opacity:1;fill-rule:nonzero;stroke:none" /><path
     d="m 321.206,125.174 c -13.83125,0 -25.19375,11.255 -25.32875,25.08875 l 0,0.0437 -0.009,0.0462 0,64.895 c 0,-0.225 0.01,-0.4225 0.0263,-0.64625 -0.0163,0.2325 -0.0263,0.465 -0.0263,0.69875 0,13.97 11.36625,25.33625 25.3375,25.33625 13.97,0 25.33625,-11.36625 25.33625,-25.33625 l 0,-0.33625 -0.002,-0.0362 0.002,-64.575 0,-0.0462 -0.008,-0.0437 C 346.3985,136.429 335.036,125.174 321.206,125.174 m 0,9.27125 c 8.81875,0 15.97125,7.10875 16.0575,15.9075 l 0.009,0 0,64.895 -0.002,0 c 0,0.0175 0.002,0.0337 0.002,0.0525 0,8.8725 -7.19375,16.06625 -16.06625,16.06625 -8.8725,0 -16.06625,-7.19375 -16.06625,-16.06625 0,-0.0188 0.002,-0.035 0.002,-0.0525 l -0.002,0 0,-64.895 0.007,0 c 0.0875,-8.79875 7.23875,-15.9075 16.05875,-15.9075"
     inkscape:connector-curvature="0"
     id="path62"
     style="fill:#ffffff;fill-opacity:1;fill-rule:nonzero;stroke:none" /><path
     d="m 194.20838,94.728375 c -1.685,0 -3.05625,1.37 -3.05625,3.055 0,1.685 1.37125,3.055005 3.05625,3.055005 1.685,0 3.05625,-1.370005 3.05625,-3.055005 0,-1.685 -1.37125,-3.055 -3.05625,-3.055 m 60.67875,0 c -1.68375,0 -3.055,1.37 -3.055,3.055 0,1.685 1.37125,3.055005 3.055,3.055005 1.685,0 3.0575,-1.370005 3.0575,-3.055005 0,-1.685 -1.3725,-3.055 -3.0575,-3.055 m 45.88,35.746245 -5.0275,0 -142.03125,0 -5.02625,0 0.405,-5.00874 c 1.73,-21.35375 14.76375,-40.306255 35.21125,-51.597505 l -9.91375,-14.3925 c -2.24,-3.24375 -1.42125,-7.715 1.8275,-9.95875 1.2075,-0.83 2.61,-1.2675 4.0675,-1.2675 2.36,0 4.56875,1.16 5.905,3.105 l 11.465,16.64375 c 8.64,-2.91 17.73125,-4.3825 27.075,-4.3825 9.62,0 18.95,1.55 27.78375,4.6125 l 11.59625,-16.86875 c 1.3375,-1.94375 3.545,-3.10625 5.9075,-3.10625 1.455,0 2.8575,0.43625 4.0575,1.26375 1.575,1.08 2.635,2.715 2.98375,4.59625 0.34625,1.8825 -0.0575,3.7875 -1.14375,5.365 l -10.13625,14.7425 c 20.0775,11.3375 32.88,30.157505 34.58625,51.244995 l 0.4075,5.00875 z"
     inkscape:connector-curvature="0"
     id="path66"
     style="fill:#62bb46;fill-opacity:1;fill-rule:nonzero;stroke:none" /><path
     d="m 180.28137,43.6145 -0.001,0 0,0 c -2.4,0 -4.71375,0.72 -6.69125,2.0825 -5.35875,3.695 -6.7125,11.05625 -3.02125,16.4125 l 7.11,10.32 c -7.7625,4.9625 -14.52,11.14 -19.86125,18.205 -7.73625,10.235 -12.3525,22.15 -13.34875,34.45875 l -0.81125,10.0175 10.0525,0 142.03125,0 10.0525,0 -0.8125,-10.0175 c -0.98625,-12.17875 -5.52125,-23.985 -13.115,-34.14625 -5.2375,-7.0075 -11.8725,-13.16125 -19.5,-18.1325 l 7.36625,-10.7125 c 1.785,-2.5925 2.45375,-5.73125 1.87875,-8.83375 -0.575,-3.1025 -2.3225,-5.79375 -4.92375,-7.57875 -1.9625,-1.35125 -4.275,-2.07125 -6.675,-2.07125 -3.89,0 -7.525,1.9125 -9.7275,5.1175 l -9.6375,14.0175 c -8.31,-2.50625 -16.99875,-3.7725 -25.9225,-3.7725 -8.6475,0 -17.09375,1.1975 -25.19875,3.5675 l -9.52625,-13.8275 c -2.2,-3.19625 -5.83375,-5.10625 -9.7175,-5.10625 m 13.92625,61.85875 c 4.2475,0 7.69,-3.4425 7.69,-7.69 0,-4.2475 -3.4425,-7.69 -7.69,-7.69 -4.2475,0 -7.69,3.4425 -7.69,7.69 0,4.2475 3.4425,7.69 7.69,7.69 m 60.68125,0 c 4.24625,0 7.69,-3.4425 7.69,-7.69 0,-4.2475 -3.44375,-7.69 -7.69,-7.69 -4.24625,0 -7.69,3.4425 -7.69,7.69 0,4.2475 3.44375,7.69 7.69,7.69 m -74.60875,-52.5875 c 0.80375,0 1.59375,0.38125 2.085,1.09375 l 13.49625,19.5925 c 8.8225,-3.41375 18.585,-5.32125 28.8625,-5.32125 10.5475,0 20.555,1.99875 29.5575,5.58125 l 13.645,-19.8475 c 0.48875,-0.7125 1.28,-1.095 2.085,-1.095 0.49375,0 0.9925,0.14375 1.42875,0.445 1.1525,0.79 1.44375,2.365 0.6525,3.515 l -13.105,19.05875 c 20.61375,9.88 35.0075,28.38 36.7525,49.9325 l -142.03125,0 C 155.47137,104.0595 170.15262,85.3945 191.11637,75.597 L 178.20012,56.84825 c -0.79125,-1.15 -0.50125,-2.725 0.6475,-3.5175 0.43875,-0.30125 0.9375,-0.445 1.4325,-0.445"
     inkscape:connector-curvature="0"
     id="path70"
     style="fill:#ffffff;fill-opacity:1;fill-rule:nonzero;stroke:none" /><path
     d="m 56.517375,406.98125 c 1.4225,0 13.695,-0.0525 13.695,-0.0525 l 0,-10.4825 -12.43125,0 c -9.27,0 -13.27375,-10.06 -13.27375,-16.64375 0,-5.9525 6.26875,-13.16875 12.37875,-13.16875 6.11,0 22.47875,-0.006 22.47875,-0.006 l -0.04,40.30125 10.6925,0 -0.03625,-50.9175 c 0,0 -26.3,-0.0188 -33.0425,-0.0188 -6.7425,0 -22.33375,7.79625 -22.33375,26.12625 0,11.8 12.01,24.8625 21.9125,24.8625 m 55.361255,0 c 0,0 0.0525,-25.495 0.0525,-29.91875 0,-6.9525 8.00625,-12.43125 14.32624,-12.43125 6.32126,0 15.5925,3.47625 15.5925,12.22 0,6.95375 -0.0525,30.13 -0.0525,30.13 l 10.58749,-0.0525 0,-29.86625 c 0,-12.32625 -11.37875,-23.1775 -25.49499,-23.1775 -14.11625,0 -24.65125,11.37875 -24.65125,22.125 l 0,30.91875 9.64,0.0525 z m 78.905,-40.4 c 4.63625,0 11.95749,6.05625 11.95749,14.905 0,8.85125 -8.63874,15.32875 -12.85249,15.32875 -4.21375,0 -24.915,0.10625 -24.915,0.10625 l 0.0525,10.0075 25.23125,0 c 10.32375,0 22.8075,-10.90375 22.8075,-26.0725 0,-15.17125 -13.43125,-24.96875 -20.80625,-24.96875 -7.37375,0 -27.3375,-0.0525 -27.3375,-0.0525 l 0.0525,10.79875 c 0,0 21.17499,-0.0525 25.81,-0.0525 m 62.3675,0 c 4.21375,0 6.05625,4.37125 6.05625,7.32125 0,3.47625 -1.7375,8.21625 -6.37251,8.21625 l -27.33875,0 0,10.2725 c 0,0 11.79875,-0.0525 19.38375,-0.0525 7.58625,0 12.4325,7.8475 12.4325,14.59 l 10.745,0 c 0,-9.48125 -3.05499,-17.435 -6.53125,-17.435 2.31625,0 8.21626,-7.11125 8.21626,-15.96 0,-8.85 -7.00501,-17.64625 -15.0125,-17.64625 l -29.23375,0 0,10.74625 c 0,0 23.44125,-0.0525 27.655,-0.0525 m 68.2125,13.43125 c 0,8.49625 -6.885,15.38 -15.38126,15.38 -8.49499,0 -15.38,-6.88375 -15.38,-15.38 0,-8.495 6.88501,-15.38125 15.38,-15.38125 8.49626,0 15.38126,6.88625 15.38126,15.38125 M 305.87738,353.465 c -14.72001,0 -26.65376,11.9325 -26.65376,26.65375 0,14.71875 11.93375,26.6525 26.65376,26.6525 14.71999,0 26.65375,-11.93375 26.65375,-26.6525 0,-14.72125 -11.93376,-26.65375 -26.65375,-26.65375 m 48.14499,2.4225 -10.53624,0 0,51.09375 10.53624,0 0,-51.09375 z m 12.3775,10.69375 0,-10.69375 26.75875,0 c 9.69251,0 21.54376,11.69375 21.54376,24.7575 0,13.0625 -9.06,26.28375 -23.59751,26.28375 -14.53875,0 -24.705,0.0525 -24.705,0.0525 l 0.0525,-10.06 c 0,0 19.38499,-0.0537 24.65249,-0.0537 5.26751,0 13.0625,-6.95125 13.0625,-14.95875 0,-8.00625 -6.9525,-15.3275 -13.27375,-15.3275 l -24.49375,0 z"
     inkscape:connector-curvature="0"
     id="path74"
     style="fill:#ffffff;fill-opacity:1;fill-rule:nonzero;stroke:none" /></svg>